PathFileType	4	(X/Y/Z)	D:\Research_projects\MuscleProsody\BulkSports2Dtrack\RetrackedSports2D\p1_sample60_cam2\p1_sample60_cam2_Sports2D\p1_sample60_cam2_Sports2D_px_person00.trc
DataRate	CameraRate	NumFrames	NumMarkers	Units	OrigDataRate	OrigDataStartFrame	OrigNumFrames
60	60	8	22	m	60	390	780
Frame#	Time	Hip			RHip			RKnee			RAnkle			RBigToe			RSmallToe			RHeel			LHip			LKnee			LAnkle			LBigToe			LSmallToe			LHeel			Neck			Head			Nose			RShoulder			RElbow			RWrist			LShoulder			LElbow			LWrist		
		X1	Y1	Z1	X2	Y2	Z2	X3	Y3	Z3	X4	Y4	Z4	X5	Y5	Z5	X6	Y6	Z6	X7	Y7	Z7	X8	Y8	Z8	X9	Y9	Z9	X10	Y10	Z10	X11	Y11	Z11	X12	Y12	Z12	X13	Y13	Z13	X14	Y14	Z14	X15	Y15	Z15	X16	Y16	Z16	X17	Y17	Z17	X18	Y18	Z18	X19	Y19	Z19	X20	Y20	Z20	X21	Y21	Z21	X22	Y22	Z22
390	6.5	269.2010092563401	512.3426614859309	0.0	241.14444848232029	518.2443584926312	0.0	233.61392460418475	632.9028300951115	0.0	223.72027378140092	731.1095175387799	0.0	219.91385644602653	767.1760819575805	0.0	206.60461132739454	760.3024097423615	0.0	227.45579884301713	739.4442430309305	0.0	295.42206503210195	512.915141786918	0.0	285.0597461986134	631.5281912330307	0.0	272.3288895883371	732.6046899877105	0.0	266.9455699758521	767.6097846075404	0.0	281.67368391245526	763.171468403861	0.0	267.28053110328796	739.3566624537544	0.0	221.32234977061995	360.09105093645934	0.0	177.73895584238318	278.20688211537686	0.0	189.0282453276736	337.693794204896	0.0	177.91231360114372	402.2153453223685	0.0	136.3616831665622	465.4058945852189	0.0	58.07354419723048	505.42820105314985	0.0	280.6935671047723	342.4157837508659	0.0	349.825005044302	317.61149032734744	0.0	396.68672169992675	251.8842005621458	0.0
391	6.516666666666667	268.428742377123	512.1109337471081	0.0	240.30591844095898	517.8846676203401	0.0	233.16815756418694	632.6890452366309	0.0	223.70279606196954	730.8222272985533	0.0	220.01880211083719	767.1745401664903	0.0	206.5662394431752	760.3495697341152	0.0	227.3828474136903	739.346576072761	0.0	294.7227740175664	512.6084278810187	0.0	284.5013991183099	631.0674093460187	0.0	272.2772658061624	732.1605262837995	0.0	266.8409091253572	767.5249496025162	0.0	281.71857001150664	763.1312209657659	0.0	267.34051555982006	739.1056703929544	0.0	220.32708288914546	359.6586403245784	0.0	176.6107500983504	277.8106373947571	0.0	187.9303637972043	337.02926284303305	0.0	177.01178993727427	402.0975290262438	0.0	136.89514817320028	465.7691657847392	0.0	59.414152883518376	506.16606430149943	0.0	279.66664630150865	342.3625303357363	0.0	349.5735327177723	319.40584067699916	0.0	398.1460839597281	254.70241699556783	0.0
392	6.533333333333333	267.4075459404761	511.90405190129803	0.0	239.20624815636333	517.4866688905175	0.0	232.4211995391479	632.5274932451482	0.0	223.61951777152686	730.5529902639552	0.0	220.13331172489208	767.181492973522	0.0	206.52700603840296	760.4165235394136	0.0	227.25548145626323	739.2184051776525	0.0	293.81180700791555	512.3162910238491	0.0	283.77454405872516	630.661020270146	0.0	272.1854931503185	731.7206643818604	0.0	266.68019593350374	767.4273747401069	0.0	281.71866236178516	763.1055950259894	0.0	267.38017887322536	738.7984531044095	0.0	219.5623163408749	358.98973597918774	0.0	176.02298878133843	277.08646324779096	0.0	187.17659957749194	336.07736003629356	0.0	176.21826211888288	401.5299871091269	0.0	137.33535499517922	465.618706631759	0.0	60.52911422648241	505.96245683486404	0.0	278.8801520324289	342.3650701497978	0.0	349.7582798169771	321.8738495229155	0.0	400.57554171774285	258.5890833576768	0.0
393	6.55	266.17758051661247	511.7145984620453	0.0	237.89260463205883	517.0523247267752	0.0	231.4182075912046	632.3946602338792	0.0	223.4719208275676	730.2946112623015	0.0	220.25036683862461	767.2023516907004	0.0	206.47493775581538	760.5125637673684	0.0	227.0773531954957	739.0668753738084	0.0	292.71315446614256	512.0330664067284	0.0	282.90044536139914	630.3056675208384	0.0	272.0548327118383	731.2839177729119	0.0	266.4748793997402	767.3216832029705	0.0	281.68316975408067	763.0995742543358	0.0	267.39268449062547	738.4510536567988	0.0	219.02352941532126	358.092300456395	0.0	175.95553750626405	276.05262147392955	0.0	186.75325030285734	334.84855003021073	0.0	175.53918962085783	400.54077505455274	0.0	137.73704536614	465.0336064493182	0.0	61.498761165848734	504.93581361258504	0.0	278.3276330878402	342.4229747648199	0.0	350.27573447844065	325.00764587322726	0.0	403.7208226362259	263.57825767543136	0.0
394	6.566666666666666	264.78204770306303	511.537868084392	0.0	236.41806197740235	516.5899519145497	0.0	230.21643183790772	632.266569149552	0.0	223.26298487896685	730.0423985044306	0.0	220.36161989143642	767.2364219923812	0.0	206.40470665232846	760.6443789753719	0.0	226.85557157975467	738.8975701067761	0.0	291.4531450399465	511.75652471294154	0.0	281.9036489502557	630.0020997484918	0.0	271.88730547929	730.8544254108178	0.0	266.23856914580927	767.2209233849853	0.0	281.6238824067665	763.122551832516	0.0	267.3765366791998	738.0826863044842	0.0	218.7069235918346	356.98624898844366	0.0	176.38029620331363	274.7425151386815	0.0	186.6420030853881	333.3601160040129	0.0	174.9904064780343	399.1638750771587	0.0	138.16735820271006	464.09537653000274	0.0	62.431022797595006	503.21833710423147	0.0	278.000252935966	342.5405870151511	0.0	350.99908162443046	328.8034335279517	0.0	407.28307628547554	269.7095938875115	0.0
395	6.583333333333333	263.26365612978424	511.37186887346365	0.0	234.8356897301288	516.1128870137193	0.0	228.87844713753975	632.1228236832118	0.0	222.99856329897136	729.7976530570708	0.0	220.45989544347424	767.279744657764	0.0	206.31944413595147	760.8133363629801	0.0	226.59937911254568	738.7184756283037	0.0	290.0593996087441	511.4900077449747	0.0	280.811435422806	629.7515730850779	0.0	271.6876914343116	730.4444101782516	0.0	265.9861836012358	767.144343065907	0.0	281.5519233948948	763.1843405317901	0.0	267.33742633885925	737.7138884709988	0.0	218.60743828310837	355.6987839141904	0.0	177.26174691856	273.20042780305675	0.0	186.82193707704587	331.6356013260812	0.0	174.5917542146353	397.44154267962926	0.0	138.69773077285055	462.8849604562739	0.0	63.45389449689806	500.95059061967163	0.0	277.8855681184047	342.7269051424645	0.0	351.7904856891379	333.2531587824392	0.0	410.9442598889026	277.00927579496556	0.0
396	6.6	261.662121426484	511.21777918981144	0.0	233.19404171181674	515.6384455383834	0.0	227.46571696710689	631.9528814712816	0.0	222.68797365072064	729.5704254817715	0.0	220.53959580281855	767.3300658661972	0.0	206.22666544849668	761.0153209195804	0.0	226.3179561977658	738.5441769295103	0.0	288.56028663444187	511.24305918203584	0.0	279.6538638559729	629.5541365918164	0.0	271.46366828521616	730.074333445224	0.0	265.7338002959006	767.1116733237598	0.0	281.4765125109334	763.2899805004299	0.0	267.28483086562665	737.3663617957794	0.0	218.71771832711707	354.2611949903682	0.0	178.55650937155067	271.4786645464859	0.0	187.2699205942286	329.7079274082749	0.0	174.36299647113438	395.4276414194151	0.0	139.39918855865722	461.48038693957005	0.0	64.70911297118472	498.27611117946765	0.0	277.9677927345571	342.9944786573994	0.0	352.51275124999245	338.33297250110434	0.0	414.38377858609357	285.4794731576703	0.0
397	6.616666666666666	260.0115764162863	511.0806225586733	0.0	231.5333675905274	515.1867760220243	0.0	226.03325428157754	631.7607164815598	0.0	222.34372587567478	729.378188759607	0.0	220.59683056041214	767.3889832917214	0.0	206.13234637207776	761.2427602059091	0.0	226.02113456918931	738.3944732856411	0.0	286.98428102812323	511.0310124742282	0.0	278.4619717593089	629.4120091344097	0.0	271.22403378219695	729.7693375582822	0.0	265.49463411497834	767.1375114931144	0.0	281.4037457461134	763.4407367192549	0.0	267.22959161888446	737.0623654512164	0.0	219.02853266852165	352.70751904190934	0.0	180.2133491081138	269.63492577761474	0.0	187.9599226821056	327.6195698017719	0.0	174.3201200062607	393.18558116884907	0.0	140.33666462614784	459.9545220133513	0.0	66.34193050764382	495.33782439800706	0.0	278.22999472792645	343.3549982195093	0.0	353.03801143106193	343.9982912563477	0.0	417.2951003786446	295.1016445782152	0.0
